<?xml version="1.0" encoding="UTF-8"?>
<svg id="Layer_1" xmlns="http://www.w3.org/2000/svg" version="1.1" viewBox="0 0 3826.8 2834.6">
  <defs>
    <style>

      .st0 {
        fill:rgba(21, 24, 230, 0);
      }
      .st1 {
        fill:rgb(255, 255, 10);
      }
    </style>
  </defs>
  <rect class="st0" width="3826.8" height="2834.6"/>
  <path class="st1" d="M928.3,2061h-312.4v32.2h312.4v245.7h-432.5v-104.3h312.4v-33.9h-312.4v-244h432.5v104.3ZM928.3,1844.1h-117.4v-208l-98.6,98.2v.5l-.3-.2-.2.2v-.5l-98.6-98.2v208h-117.4v-382.2h117.4l99,102.3,98.8-102.3h117.4v382.2ZM928.3,1075.7h-312.4v32.2h312.4v245.7h-432.5v-104.3h312.4v-33.9h-312.4v-244h432.5v104.3ZM1300.6,2251.5h-111.8v-105.4h111.8c22.9,0,42-18.6,42-42s-19.1-42-42-42h-160.5v276.8h-120.1v-382.2h280.6c97.7,0,162.1,66.1,162.1,147.4s-64.5,147.4-162.1,147.4ZM1349.9,1844.1l-15.8-60.6h-.7l-26.8-106.5h.2l-28-109.8h-107.4l-28.4,109.8h115.1l26.6,106.5h-169l-15.8,60.6h-121.3l101-382.2h291l27.8,105.3,29,109.8,44.2,167h-121.8ZM1330.6,1248.2v105.4h-326.9v-382.2h120.2v276.8h206.7ZM1371.8,1353.6l44.2-167,29-109.8,27.8-105.3h291l101,382.2h46.2l16.7,63.1h-167.7l-16.7-63.1h.2l-15.8-60.6h-.5l-26.8-106.5-28.4-109.8h-107.4l-27.9,109.8h115.3l26.6,106.5h-169.1l-15.8,60.6h-121.8ZM1868.1,2338.9l-15.8-60.6-26.8-106.5h-.5l-27.9-109.8h-107.4l-28.4,109.8h115.8l26.6,106.5h-169.7l-15.8,60.6h-121.3l101-382.2h291l27.8,105.3,29,109.8,44.2,167h-121.8ZM1998.8,1844.1h-130l-66.5-142h-159.6v142h-120.7v-382.2h120.7v135.4h162.9l63.3-135.4h130l-90.6,191.1,90.6,191.1ZM1947.4,1215.5v-244h432.5v104.3h-312.4v32.2h312.4v245.7h-432.5v-104.3h312.4v-33.9h-312.4ZM2402,1603.9v99.4h-226.5v36.6h263.7v104.3h-383.8v-382.2h383.8v103.7h-263.7v38.2h226.5ZM2231.5,2235.1h73.7c41.5,0,72.6-26.7,83.5-60.6h124.5c-12,103.2-95,170.9-208,170.9h-73.7c-119.5,0-209.6-79.1-209.6-197.6s87.3-197.6,209.6-197.6h73.7c113,0,196,67.7,208,170.9h-124.5c-10.9-33.3-42-59-83.5-59h-73.7c-51.8,0-87.3,36.6-87.3,85.7s35.5,87.4,87.3,87.4ZM2704.4,1102.5l63.3-135.4h130l-90.6,191.1,90.6,191.1h-130l-66.5-142h-122.9v142h-120.6v-382.2h120.6v135.4h126.2ZM2524.1,1461.9h280.6c97.7,0,162.1,66,162.1,147.4s-26.8,98.3-72,124.5l73.1,110.3h-139.2l-51.9-87.4h-83.4v-105.4h111.3c22.9,0,42-18.5,42-42s-19.1-42-42-42h-160v189.5h0s0,0,0,0v87.4h-120.7v-382.2ZM2928.4,1349.2v-382.2h120.1v382.2h-120.1ZM3349.5,2338.9h-373.7s-383.8,0-383.8,0v-382.2h383.8v103.7h-263.7v38.2h226.5v99.4h-226.5v36.6h205.9s301.4,0,301.4,0V600H808.2v324.6h-130.2v-428.9h2671.5v1843.1Z"/>
</svg>